<?xml version="1.0" encoding="UTF-8" standalone="no"?>
<svg
   version="1.1"
   id="Layer_1"
   x="0px"
   y="0px"
   width="100%"
   viewBox="0 0 642 642"
   enable-background="new 0 0 642 642"
   xml:space="preserve"
   sodipodi:docname="barbermanager.svg"
   inkscape:version="1.4.2 (f4327f4, 2025-05-13)"
   xmlns:inkscape="http://www.inkscape.org/namespaces/inkscape"
   xmlns:sodipodi="http://sodipodi.sourceforge.net/DTD/sodipodi-0.dtd"
   xmlns="http://www.w3.org/2000/svg"
   xmlns:svg="http://www.w3.org/2000/svg"><defs
   id="defs17"><inkscape:path-effect
     effect="fillet_chamfer"
     id="path-effect22"
     is_visible="true"
     lpeversion="1"
     nodesatellites_param="F,0,0,1,0,0,0,1 @ F,0,0,1,0,0,0,1 @ F,0,0,1,0,0,0,1 @ F,0,0,1,0,0,0,1 @ F,0,0,1,0,0,0,1 @ F,0,0,1,0,0,0,1 @ F,0,0,1,0,0,0,1 @ F,0,0,1,0,0,0,1"
     radius="0"
     unit="px"
     method="auto"
     mode="F"
     chamfer_steps="1"
     flexible="false"
     use_knot_distance="true"
     apply_no_radius="true"
     apply_with_radius="true"
     only_selected="false"
     hide_knots="false" /><inkscape:path-effect
     effect="fillet_chamfer"
     id="path-effect21"
     is_visible="true"
     lpeversion="1"
     nodesatellites_param="F,0,0,1,0,0,0,1 @ F,0,0,1,0,0,0,1 @ F,0,0,1,0,0,0,1 @ F,0,0,1,0,0,0,1 @ F,0,0,1,0,0,0,1 @ F,0,0,1,0,0,0,1 @ F,0,0,1,0,0,0,1 @ F,0,0,1,0,0,0,1"
     radius="0"
     unit="px"
     method="auto"
     mode="F"
     chamfer_steps="1"
     flexible="false"
     use_knot_distance="true"
     apply_no_radius="true"
     apply_with_radius="true"
     only_selected="false"
     hide_knots="false" /><inkscape:path-effect
     effect="fillet_chamfer"
     id="path-effect20"
     is_visible="true"
     lpeversion="1"
     nodesatellites_param="F,0,0,1,0,0,0,1 @ F,0,0,1,0,0,0,1 @ F,0,0,1,0,0,0,1 @ F,0,0,1,0,0,0,1 @ F,0,0,1,0,0,0,1 @ F,0,0,1,0,0,0,1 @ F,0,0,1,0,0,0,1 @ F,0,0,1,0,0,0,1"
     radius="0"
     unit="px"
     method="auto"
     mode="F"
     chamfer_steps="1"
     flexible="false"
     use_knot_distance="true"
     apply_no_radius="true"
     apply_with_radius="true"
     only_selected="false"
     hide_knots="false" /><inkscape:path-effect
     effect="fillet_chamfer"
     id="path-effect19"
     is_visible="true"
     lpeversion="1"
     nodesatellites_param="F,0,0,1,0,0,0,1 @ F,0,0,1,0,0,0,1 @ F,0,0,1,0,0,0,1 @ F,0,0,1,0,0,0,1 @ F,0,0,1,0,0,0,1 @ F,0,0,1,0,0,0,1 @ F,0,0,1,0,0,0,1 @ F,0,0,1,0,0,0,1"
     radius="0"
     unit="px"
     method="auto"
     mode="F"
     chamfer_steps="1"
     flexible="false"
     use_knot_distance="true"
     apply_no_radius="true"
     apply_with_radius="true"
     only_selected="false"
     hide_knots="false" /><inkscape:path-effect
     effect="fillet_chamfer"
     id="path-effect18"
     is_visible="true"
     lpeversion="1"
     nodesatellites_param="F,0,0,1,0,107.11267,0,1 @ F,0,0,1,0,107.11267,0,1 @ F,0,0,1,0,107.11267,0,1 @ F,0,0,1,0,107.11267,0,1"
     radius="0"
     unit="px"
     method="auto"
     mode="F"
     chamfer_steps="1"
     flexible="false"
     use_knot_distance="true"
     apply_no_radius="true"
     apply_with_radius="true"
     only_selected="false"
     hide_knots="false" /><inkscape:path-effect
     effect="fillet_chamfer"
     id="path-effect4"
     is_visible="true"
     lpeversion="1"
     nodesatellites_param="F,0,0,1,0,125.93428,0,1 @ F,0,0,1,0,102.09401,0,1 @ F,0,0,1,0,117.87663,0,1 @ F,0,0,1,0,125.90951,0,1"
     radius="0"
     unit="px"
     method="auto"
     mode="F"
     chamfer_steps="1"
     flexible="false"
     use_knot_distance="true"
     apply_no_radius="true"
     apply_with_radius="true"
     only_selected="false"
     hide_knots="false" /><inkscape:path-effect
     effect="fillet_chamfer"
     id="path-effect3"
     is_visible="true"
     lpeversion="1"
     nodesatellites_param="F,0,0,1,0,0,0,1 @ F,0,0,1,0,0,0,1 @ F,0,0,1,0,0,0,1 @ F,0,0,1,0,0,0,1"
     radius="0"
     unit="px"
     method="auto"
     mode="F"
     chamfer_steps="1"
     flexible="false"
     use_knot_distance="true"
     apply_no_radius="true"
     apply_with_radius="true"
     only_selected="false"
     hide_knots="false" /></defs><sodipodi:namedview
   id="namedview17"
   pagecolor="#505050"
   bordercolor="#eeeeee"
   borderopacity="1"
   inkscape:showpageshadow="0"
   inkscape:pageopacity="0"
   inkscape:pagecheckerboard="0"
   inkscape:deskcolor="#505050"
   inkscape:zoom="1"
   inkscape:cx="479.5"
   inkscape:cy="347"
   inkscape:window-width="2560"
   inkscape:window-height="1352"
   inkscape:window-x="-9"
   inkscape:window-y="-9"
   inkscape:window-maximized="1"
   inkscape:current-layer="Layer_1" />






<rect
   style="fill:#e3e1dd;fill-opacity:1"
   id="rect22"
   width="643.46716"
   height="639.93164"
   x="-0.70710677"
   y="-0.70710677"
   ry="132.93608"
   inkscape:label="background" /><path
   fill="#010101"
   opacity="1"
   stroke="none"
   d="m 347.66087,109.02275 c 16.44233,1e-4 32.38509,1e-4 48.8035,1e-4 0,7.57003 -0.0207,14.76189 0.004,21.95358 0.0444,12.65102 5.15804,22.76873 16.93217,28.05463 11.98133,5.37894 24.47568,5.12103 34.99998,-3.39175 7.68048,-6.21247 10.94452,-15.24967 10.88554,-25.23208 -0.0414,-7.02298 -0.008,-14.0464 -0.008,-20.40946 13.5035,0 26.49905,-1.09381 39.22875,0.25796 18.79954,1.99635 35.48139,19.84928 37.82233,38.5005 0.57055,4.54565 0.9623,9.14737 0.96449,13.72354 0.0498,103.82675 0.0437,207.65354 0.0231,311.4803 -0.004,23.79557 -11.42336,40.39319 -34.02619,48.44536 -5.14784,1.8339 -11.03218,2.28834 -16.57877,2.29448 -111.21176,0.1241 -222.42382,0.0222 -333.63554,0.15809 -16.98461,0.0208 -30.47909,-6.6331 -40.86081,-19.36229 -7.40666,-9.08139 -9.72176,-20.07585 -9.71533,-31.63665 0.0319,-57.26103 -0.0108,-114.52204 -0.0172,-171.78306 -0.005,-47.38842 0.68434,-94.78987 -0.24208,-142.16059 -0.58329,-29.82571 20.75714,-50.11548 48.66902,-51.06288 9.75662,-0.33117 19.53437,-0.0528 29.7393,-0.0528 0,7.91905 0.12829,15.28483 -0.0243,22.64491 -0.42604,20.52058 15.03478,32.05486 34.7344,30.46911 15.38075,-1.23808 27.33706,-12.96478 27.21068,-30.30864 -0.0538,-7.37574 -0.009,-14.75217 -0.009,-22.58243 35.13382,0 69.8669,0 105.09956,1e-4 m -44.46115,76.02729 c -51.44547,-0.0129 -102.89098,-0.0341 -154.33647,-0.0331 -12.83394,2.6e-4 -21.00059,7.85127 -21.00163,20.17015 -0.008,90.33722 -0.0125,180.67442 0.007,271.01163 0.003,13.93771 9.96092,23.68491 23.8994,23.68266 111.54853,-0.0181 223.09703,-0.0209 334.64556,-0.009 15.43924,0.002 25.10132,-9.38026 25.10121,-24.50915 -6.5e-4,-89.34991 -8.5e-4,-178.69981 -0.002,-268.04973 -2.1e-4,-14.77943 -7.58224,-22.29108 -22.50925,-22.28959 -61.60135,0.005 -123.20269,0.0156 -185.80317,0.0259 z"
   id="path7-9"
   style="display:inline;fill:#2b2b2a;fill-opacity:1;stroke-width:0.993277"
   inkscape:label="frame" />
<path
   fill="#020202"
   opacity="1"
   stroke="none"
   d="m 422.78519,76.870492 c 14.29108,-1.716081 23.72483,3.931918 27.16714,15.909404 0.3983,1.385861 0.62718,2.868234 0.63402,4.307261 0.0524,11.016783 -0.2142,22.040773 0.10181,33.048973 0.3044,10.6055 -10.08259,22.63015 -21.08324,23.12492 -13.71915,0.61707 -23.85429,-9.42953 -24.06185,-21.67467 -0.1922,-11.34272 -0.3507,-22.69944 0.004,-34.033791 0.31496,-10.041969 6.99495,-17.708273 17.23732,-20.682097 z"
   id="path8-2"
   style="display:inline;fill:#2b2b2a;fill-opacity:1;stroke-width:0.993277"
   inkscape:label="pin right" /><path
   fill="#020202"
   opacity="1"
   stroke="none"
   d="m 206.34622,76.414871 c 14.29111,-1.716082 23.72484,3.931917 27.16716,15.909403 0.39828,1.385861 0.62718,2.868234 0.63401,4.30726 0.0524,11.016786 -0.2142,22.040776 0.10182,33.048986 0.30441,10.60549 -10.0826,22.63013 -21.08325,23.12491 -13.71913,0.61707 -23.8543,-9.42953 -24.06185,-21.67468 -0.1922,-11.34271 -0.3507,-22.69944 0.004,-34.033783 0.31495,-10.041969 6.99494,-17.708273 17.2373,-20.682096 z"
   id="path8-2-1"
   style="display:inline;fill:#2b2b2a;fill-opacity:1;stroke-width:0.993277"
   inkscape:label="pin left" />


<path
   fill="#010101"
   opacity="1"
   stroke="none"
   d="M 241.85537,281.70602 C 228.82564,260.85589 215.79086,240.0088 202.78021,219.147 c -0.6899,-1.10618 -1.47296,-2.28851 -1.67796,-3.52216 -0.23457,-1.41174 -0.41819,-3.63844 0.36103,-4.21856 1.16367,-0.86629 3.39623,-1.17293 4.79484,-0.67568 1.76511,0.62754 3.31112,2.14873 4.673,3.54911 22.35812,22.99065 44.8677,45.84219 66.92022,69.11647 12.47568,13.16685 24.23208,27.00253 36.22453,40.61261 11.18192,12.69022 25.49712,21.16684 40.10149,29.20828 7.13288,3.92751 14.66624,7.14089 21.83962,11.00194 3.21423,1.73006 5.57361,1.75443 8.80177,-0.25935 22.09234,-13.78146 53.93733,-3.09479 60.5762,23.34287 3.50067,13.94065 -5.96579,29.74659 -21.54218,35.00829 -22.5425,7.61481 -47.98206,-6.93635 -52.56,-30.17353 -0.46816,-2.37649 -0.82722,-5.21483 0.0494,-7.31434 1.65482,-3.9638 -0.50936,-5.22919 -3.34148,-6.66049 -8.46258,-4.2769 -16.81435,-8.7742 -25.34843,-12.90486 -8.28981,-4.01249 -16.75156,-7.67794 -26.38521,-10.79107 7.91561,14.99213 15.75223,30.02629 23.86656,44.91259 0.83,1.52263 3.19463,2.60815 5.06689,3.13756 20.78369,5.87706 33.65194,23.24791 31.79348,44.27574 -1.12881,12.77245 -7.88707,22.54887 -20.01483,27.49658 -12.17235,4.96581 -23.59826,2.2215 -33.7013,-5.83582 -10.27542,-8.19485 -15.42163,-19.26995 -15.90864,-31.97667 -0.46108,-12.02983 4.3155,-22.34008 14.44591,-29.59385 2.0087,-1.43835 2.80938,-2.39957 1.48341,-4.64105 -6.43324,-10.87486 -12.29709,-22.11517 -19.29604,-32.61852 -12.13742,-18.21453 -29.56488,-31.08804 -46.84943,-44.19214 -21.53471,-16.32642 -42.46595,-33.43426 -63.54282,-50.34467 -7.47094,-5.99409 -14.66851,-12.32795 -21.85161,-18.66105 -2.07096,-1.8259 -5.34124,-3.74996 -2.50244,-7.25523 2.4692,-3.0489 5.3586,-1.62253 8.02275,-0.1824 13.96634,7.54979 27.87093,15.21191 41.87267,22.69676 6.93551,3.70748 14.03361,7.11794 21.56509,10.95428 0.71755,-0.11649 0.92814,-0.52455 1.13874,-0.93262 M 363.1098,435.06026 c -1.68075,-3.31785 -2.94794,-6.93018 -5.1143,-9.9023 -9.09383,-12.47653 -24.91883,-12.86773 -33.97763,-1.05019 -5.92964,7.73545 -4.99224,20.00445 2.292,30 5.7614,7.90593 18.07454,11.25027 26.49374,7.1959 9.15171,-4.40721 13.62836,-15.38892 10.30619,-26.24341 m 22.2985,-50.84045 c 0.11071,3.22513 -0.44108,6.64224 0.44882,9.64154 3.53081,11.90011 17.22128,19.84722 29.53983,17.56774 12.16193,-2.25045 20.49758,-13.6876 16.27255,-23.63969 -1.99655,-4.70281 -5.88117,-9.13469 -9.98195,-12.35734 -12.60183,-9.90335 -30.56016,-5.55928 -36.27925,8.78775 m -87.04947,-59.73648 c -5.49116,-2.40388 -9.85135,0.99607 -9.92573,3.78502 -0.0609,2.28133 0.65544,4.98785 2.44674,6.25482 1.50014,1.06099 6.01312,1.23995 7.79552,0.0915 3.27745,-2.1117 2.91354,-8.3575 -0.31657,-10.13136 z"
   id="path11"
   sodipodi:nodetypes="csssscssssssssssscssssssssssssscscccssssccssssccssscc"
   style="display:inline;fill:#2b2b2a;fill-opacity:1;stroke-width:0.993277"
   inkscape:label="scissors" />
<path
   fill="#010101"
   opacity="1"
   stroke="none"
   d="m 256.37852,411.69835 c -11.5589,13.72419 -22.98895,27.1002 -34.25316,40.61134 -4.064,4.87471 -12.69061,7.49355 -19.36832,5.395 -6.47526,-2.03494 -11.98428,-8.72385 -12.52643,-14.878 -0.6128,-6.95601 1.6097,-12.64247 6.62761,-17.62092 24.76781,-24.57295 49.41631,-49.26345 74.09556,-73.92356 0.68299,-0.68247 1.23783,-1.4902 1.1572,-1.39192 7.14696,6.24223 13.96149,12.19412 21.12157,18.44779 -12.61314,14.81714 -24.63638,28.94135 -36.85403,43.36027 z"
   id="path13"
   style="display:inline;fill:#2b2b2a;fill-opacity:1;stroke-width:0.993277"
   inkscape:label="comb bottom" /><path
   fill="#010101"
   opacity="1"
   stroke="none"
   d="m 422.32345,266.13624 c 5.66864,5.59453 11.07065,10.959 16.51541,16.28067 2.55122,2.49353 3.63553,5.42788 1.03437,8.16631 -2.84838,2.99869 -5.93096,1.82291 -8.64424,-0.77027 -8.85161,-8.45972 -17.71178,-16.91096 -26.61581,-25.31664 -2.09589,-1.97855 -4.28537,-4.90547 -7.41071,-1.56076 -2.75968,2.9534 -0.81964,5.2867 1.47189,7.52317 8.29167,8.09253 16.53057,16.23788 24.77714,24.37545 0.93704,0.9247 2.46511,1.86781 2.55726,2.90334 0.21003,2.36052 0.56292,5.76861 -0.76252,6.90488 -1.3298,1.14008 -5.33093,0.94963 -6.92135,-0.25581 -4.0582,-3.0757 -7.36153,-7.10782 -11.08413,-10.6364 -5.27889,-5.00378 -10.65166,-9.91119 -16.01565,-14.82637 -0.71837,-0.65825 -1.59604,-1.54299 -2.441,-1.5891 -1.8788,-0.10258 -3.78363,0.25986 -5.67783,0.43278 0.22991,1.86265 -0.24658,4.38628 0.803,5.48187 7.43746,7.76383 15.18795,15.23466 22.8377,22.79986 1.17666,1.16364 2.45237,2.24816 3.50104,3.51569 2.25711,2.72803 4.67743,5.74776 1.024,8.90673 -3.26979,2.82728 -6.48609,1.42696 -9.22629,-1.26765 -6.36968,-6.26374 -12.67364,-12.59329 -19.08544,-18.81441 -2.48464,-2.41083 -5.20023,-4.58804 -7.78874,-6.89563 -2.14331,-1.91077 -4.64066,-1.84928 -5.95141,0.35324 -0.74748,1.25598 -0.31359,4.23572 0.75324,5.34383 7.91423,8.22039 16.19997,16.09039 24.1738,24.25659 1.74282,1.78486 3.3675,4.17853 3.8745,6.53784 0.91919,4.27753 -2.73552,6.95444 -6.76874,5.16991 -1.73581,-0.76795 -3.20606,-2.24258 -4.6213,-3.57806 -8.29619,-7.82883 -16.55383,-15.69773 -24.79326,-23.58493 -2.20672,-2.11238 -4.52145,-3.07041 -6.77505,-0.35165 -2.24638,2.70993 -0.46394,4.93341 1.50296,6.82919 6.90913,6.65934 13.92281,13.21304 20.80413,19.89999 1.88169,1.82853 3.43647,3.98522 5.14544,5.98787 1.99323,2.33583 2.26705,4.80942 0.0105,7.00407 -2.16091,2.1016 -4.81635,2.87075 -7.57028,0.9849 -1.34721,-0.92259 -2.54136,-2.08721 -3.71099,-3.23558 -7.20513,-7.07428 -14.30269,-14.25767 -21.59988,-21.23745 -4.68525,-4.48141 -6.04361,-4.31577 -10.50429,0.31052 -0.80323,0.83302 -1.60418,1.67105 -2.35834,2.54702 -2.77854,3.22747 -5.5024,3.5577 -8.74033,0.39663 -5.06993,-4.94951 -10.37099,-9.66776 -14.41386,-13.40997 16.1735,-16.62126 31.49455,-32.575 47.05636,-48.29593 13.50638,-13.64448 27.36419,-26.94858 40.91847,-40.5474 10.37017,-10.40428 26.29046,-12.7569 37.89932,-0.1305 7.82942,8.51561 16.44025,16.32672 24.62109,24.5313 2.08759,2.09362 4.02823,4.37317 5.75344,6.76648 2.37266,3.29158 1.02454,6.1368 -1.56599,8.68529 -2.74972,2.705 -5.38025,1.9332 -7.81577,-0.3472 -7.72599,-7.23372 -15.37023,-14.55288 -23.1015,-21.78106 -2.28771,-2.13882 -4.85093,-3.99142 -7.11892,-6.1487 -2.08455,-1.9828 -4.16165,-2.15378 -6.03395,-0.10412 -2.0821,2.27923 -1.24205,4.51672 0.80961,6.45203 4.33379,4.08811 8.71267,8.13073 12.99265,12.27315 5.11466,4.95029 10.1433,9.98735 15.21305,14.98306 2.46857,2.43247 3.72869,4.98563 0.95617,8.03691 -2.72355,2.99742 -5.61637,2.4615 -8.23445,0.0882 -4.65615,-4.22084 -9.09221,-8.67771 -13.68058,-12.973 -4.94871,-4.63272 -9.81495,-9.37481 -15.06191,-13.65653 -1.29524,-1.05701 -3.9263,-0.51503 -5.94328,-0.70812 0.0611,2.19509 -0.75057,5.06413 0.35012,6.45631 3.05121,3.85931 6.89904,7.10341 10.68117,10.83816 z"
   id="path12"
   style="display:inline;fill:#2b2b2a;fill-opacity:1;stroke-width:0.993277"
   inkscape:label="comb top" />





</svg>
